<svg xmlns="http://www.w3.org/2000/svg" xmlns:xlink="http://www.w3.org/1999/xlink" xmlns:lucid="lucid" width="1547" height="770"><g transform="translate(0 -290)" lucid:page-tab-id="0_0"><path d="M500 325a5 5 0 0 1 5-5h330a5 5 0 0 1 5 5v158a5 5 0 0 1-5 5H505a5 5 0 0 1-5-5z" fill="#fff"/><path d="M500 360v-35a5 5 0 0 1 5-5h330a5 5 0 0 1 5 5v35" fill="#ced4db"/><path d="M500 325a5 5 0 0 1 5-5h330a5 5 0 0 1 5 5v158a5 5 0 0 1-5 5H505a5 5 0 0 1-5-5zM500 360h340M670 360v128" stroke="#282c33" fill="none"/><use xlink:href="#a" transform="matrix(1,0,0,1,510,320) translate(0 23.6)"/><use xlink:href="#b" transform="matrix(1,0,0,1,505,362.5) translate(0 17.1)"/><use xlink:href="#c" transform="matrix(1,0,0,1,675,362.5) translate(0 17.1)"/><use xlink:href="#d" transform="matrix(1,0,0,1,675,362.5) translate(23.95 17.1)"/><use xlink:href="#e" transform="matrix(1,0,0,1,505,394.5) translate(0 17.1)"/><use xlink:href="#f" transform="matrix(1,0,0,1,675,394.5) translate(0 17.1)"/><use xlink:href="#g" transform="matrix(1,0,0,1,675,394.5) translate(106.80000000000001 17.1)"/><use xlink:href="#h" transform="matrix(1,0,0,1,675,394.5) translate(126.75000000000001 17.1)"/><use xlink:href="#i" transform="matrix(1,0,0,1,505,426.5) translate(0 17.1)"/><use xlink:href="#j" transform="matrix(1,0,0,1,675,426.5) translate(0 17.1)"/><use xlink:href="#g" transform="matrix(1,0,0,1,675,426.5) translate(38.95 17.1)"/><use xlink:href="#h" transform="matrix(1,0,0,1,675,426.5) translate(58.900000000000006 17.1)"/><use xlink:href="#k" transform="matrix(1,0,0,1,505,458.5) translate(0 17.1)"/><use xlink:href="#c" transform="matrix(1,0,0,1,675,458.5) translate(0 17.1)"/><use xlink:href="#g" transform="matrix(1,0,0,1,675,458.5) translate(23.95 17.1)"/><use xlink:href="#h" transform="matrix(1,0,0,1,675,458.5) translate(43.900000000000006 17.1)"/><path d="M120 542.6a5 5 0 0 1 5-5h310a5 5 0 0 1 5 5v190a5 5 0 0 1-5 5H125a5 5 0 0 1-5-5z" fill="#fff"/><path d="M120 577.6v-35a5 5 0 0 1 5-5h310a5 5 0 0 1 5 5v35" fill="#ced4db"/><path d="M120 542.6a5 5 0 0 1 5-5h310a5 5 0 0 1 5 5v190a5 5 0 0 1-5 5H125a5 5 0 0 1-5-5zM120 577.6h320M268.22 577.6v160" stroke="#282c33" fill="none"/><use xlink:href="#l" transform="matrix(1,0,0,1,130,537.5881134931934) translate(0 23.6)"/><use xlink:href="#m" transform="matrix(1,0,0,1,125,580.0881134931934) translate(0 17.1)"/><use xlink:href="#c" transform="matrix(1,0,0,1,273.21557830288714,580.0881134931934) translate(0 17.1)"/><use xlink:href="#d" transform="matrix(1,0,0,1,273.21557830288714,580.0881134931934) translate(23.95 17.1)"/><use xlink:href="#b" transform="matrix(1,0,0,1,125,612.0881134931934) translate(0 17.1)"/><use xlink:href="#c" transform="matrix(1,0,0,1,273.21557830288714,612.0881134931934) translate(0 17.1)"/><use xlink:href="#n" transform="matrix(1,0,0,1,273.21557830288714,612.0881134931934) translate(23.95 17.1)"/><use xlink:href="#o" transform="matrix(1,0,0,1,125,644.0881134931934) translate(0 17.1)"/><use xlink:href="#p" transform="matrix(1,0,0,1,273.21557830288714,644.0881134931934) translate(0 17.1)"/><use xlink:href="#q" transform="matrix(1,0,0,1,273.21557830288714,644.0881134931934) translate(73.9 17.1)"/><use xlink:href="#r" transform="matrix(1,0,0,1,273.21557830288714,644.0881134931934) translate(93.85000000000001 17.1)"/><use xlink:href="#s" transform="matrix(1,0,0,1,125,676.0881134931934) translate(0 17.1)"/><use xlink:href="#c" transform="matrix(1,0,0,1,273.21557830288714,676.0881134931934) translate(0 17.1)"/><use xlink:href="#g" transform="matrix(1,0,0,1,273.21557830288714,676.0881134931934) translate(23.95 17.1)"/><use xlink:href="#h" transform="matrix(1,0,0,1,273.21557830288714,676.0881134931934) translate(43.900000000000006 17.1)"/><use xlink:href="#t" transform="matrix(1,0,0,1,125,708.0881134931934) translate(0 17.1)"/><use xlink:href="#c" transform="matrix(1,0,0,1,273.21557830288714,708.0881134931934) translate(0 17.1)"/><use xlink:href="#n" transform="matrix(1,0,0,1,273.21557830288714,708.0881134931934) translate(23.95 17.1)"/><path d="M1140 605a5 5 0 0 1 5-5h330a5 5 0 0 1 5 5v222a5 5 0 0 1-5 5h-330a5 5 0 0 1-5-5z" fill="#fff"/><path d="M1140 640v-35a5 5 0 0 1 5-5h330a5 5 0 0 1 5 5v35" fill="#ced4db"/><path d="M1140 605a5 5 0 0 1 5-5h330a5 5 0 0 1 5 5v222a5 5 0 0 1-5 5h-330a5 5 0 0 1-5-5zM1140 640h340M1278.28 640v192" stroke="#282c33" fill="none"/><use xlink:href="#u" transform="matrix(1,0,0,1,1150,600) translate(0 23.6)"/><use xlink:href="#v" transform="matrix(1,0,0,1,1145,642.5) translate(0 17.1)"/><use xlink:href="#c" transform="matrix(1,0,0,1,1283.2798345758615,642.5) translate(0 17.1)"/><use xlink:href="#d" transform="matrix(1,0,0,1,1283.2798345758615,642.5) translate(23.95 17.1)"/><use xlink:href="#b" transform="matrix(1,0,0,1,1145,674.5) translate(0 17.1)"/><use xlink:href="#c" transform="matrix(1,0,0,1,1283.2798345758615,674.5) translate(0 17.1)"/><use xlink:href="#n" transform="matrix(1,0,0,1,1283.2798345758615,674.5) translate(23.95 17.1)"/><use xlink:href="#w" transform="matrix(1,0,0,1,1145,706.5) translate(0 17.1)"/><use xlink:href="#p" transform="matrix(1,0,0,1,1283.2798345758615,706.5) translate(0 17.1)"/><use xlink:href="#q" transform="matrix(1,0,0,1,1283.2798345758615,706.5) translate(73.9 17.1)"/><use xlink:href="#r" transform="matrix(1,0,0,1,1283.2798345758615,706.5) translate(93.85000000000001 17.1)"/><use xlink:href="#t" transform="matrix(1,0,0,1,1145,738.5) translate(0 17.1)"/><use xlink:href="#c" transform="matrix(1,0,0,1,1283.2798345758615,738.5) translate(0 17.1)"/><use xlink:href="#n" transform="matrix(1,0,0,1,1283.2798345758615,738.5) translate(23.95 17.1)"/><use xlink:href="#x" transform="matrix(1,0,0,1,1145,770.5) translate(0 17.1)"/><use xlink:href="#c" transform="matrix(1,0,0,1,1283.2798345758615,770.5) translate(0 17.1)"/><use xlink:href="#g" transform="matrix(1,0,0,1,1283.2798345758615,770.5) translate(23.95 17.1)"/><use xlink:href="#h" transform="matrix(1,0,0,1,1283.2798345758615,770.5) translate(43.900000000000006 17.1)"/><use xlink:href="#y" transform="matrix(1,0,0,1,1145,802.5) translate(0 17.1)"/><use xlink:href="#z" transform="matrix(1,0,0,1,1283.2798345758615,802.5) translate(0 17.1)"/><use xlink:href="#g" transform="matrix(1,0,0,1,1283.2798345758615,802.5) translate(106.80000000000001 17.1)"/><use xlink:href="#A" transform="matrix(1,0,0,1,1283.2798345758615,802.5) translate(126.75000000000001 17.1)"/><path d="M540 701.4a5 5 0 0 1 5-5h350a5 5 0 0 1 5 5v318a5 5 0 0 1-5 5H545a5 5 0 0 1-5-5z" fill="#fff"/><path d="M540 736.4v-35a5 5 0 0 1 5-5h350a5 5 0 0 1 5 5v35" fill="#ced4db"/><path d="M540 701.4a5 5 0 0 1 5-5h350a5 5 0 0 1 5 5v318a5 5 0 0 1-5 5H545a5 5 0 0 1-5-5zM540 736.4h360M678.28 736.4v288" stroke="#282c33" fill="none"/><use xlink:href="#B" transform="matrix(1,0,0,1,550,696.3856494361086) translate(0 23.6)"/><use xlink:href="#C" transform="matrix(1,0,0,1,545,738.8856494361086) translate(0 17.1)"/><use xlink:href="#D" transform="matrix(1,0,0,1,545,738.8856494361086) translate(5 17.1)"/><use xlink:href="#c" transform="matrix(1,0,0,1,683.2798345758615,738.8856494361086) translate(0 17.1)"/><use xlink:href="#d" transform="matrix(1,0,0,1,683.2798345758615,738.8856494361086) translate(23.95 17.1)"/><use xlink:href="#E" transform="matrix(1,0,0,1,545,770.8856494361086) translate(0 17.1)"/><use xlink:href="#F" transform="matrix(1,0,0,1,683.2798345758615,770.8856494361086) translate(0 17.1)"/><use xlink:href="#g" transform="matrix(1,0,0,1,683.2798345758615,770.8856494361086) translate(96.80000000000001 17.1)"/><use xlink:href="#h" transform="matrix(1,0,0,1,683.2798345758615,770.8856494361086) translate(116.75000000000001 17.1)"/><use xlink:href="#G" transform="matrix(1,0,0,1,545,802.8856494361086) translate(0 17.1)"/><use xlink:href="#F" transform="matrix(1,0,0,1,683.2798345758615,802.8856494361086) translate(0 17.1)"/><use xlink:href="#g" transform="matrix(1,0,0,1,683.2798345758615,802.8856494361086) translate(96.80000000000001 17.1)"/><use xlink:href="#A" transform="matrix(1,0,0,1,683.2798345758615,802.8856494361086) translate(116.75000000000001 17.1)"/><use xlink:href="#H" transform="matrix(1,0,0,1,545,834.8856494361086) translate(0 17.1)"/><use xlink:href="#F" transform="matrix(1,0,0,1,683.2798345758615,834.8856494361086) translate(0 17.1)"/><use xlink:href="#I" transform="matrix(1,0,0,1,683.2798345758615,834.8856494361086) translate(96.80000000000001 17.1)"/><use xlink:href="#h" transform="matrix(1,0,0,1,683.2798345758615,834.8856494361086) translate(111.80000000000001 17.1)"/><use xlink:href="#J" transform="matrix(1,0,0,1,545,866.8856494361086) translate(0 17.1)"/><use xlink:href="#F" transform="matrix(1,0,0,1,683.2798345758615,866.8856494361086) translate(0 17.1)"/><use xlink:href="#g" transform="matrix(1,0,0,1,683.2798345758615,866.8856494361086) translate(96.80000000000001 17.1)"/><use xlink:href="#h" transform="matrix(1,0,0,1,683.2798345758615,866.8856494361086) translate(116.75000000000001 17.1)"/><use xlink:href="#K" transform="matrix(1,0,0,1,545,898.8856494361086) translate(0 17.1)"/><use xlink:href="#F" transform="matrix(1,0,0,1,683.2798345758615,898.8856494361086) translate(0 17.1)"/><use xlink:href="#g" transform="matrix(1,0,0,1,683.2798345758615,898.8856494361086) translate(96.80000000000001 17.1)"/><use xlink:href="#h" transform="matrix(1,0,0,1,683.2798345758615,898.8856494361086) translate(116.75000000000001 17.1)"/><use xlink:href="#L" transform="matrix(1,0,0,1,545,930.8856494361086) translate(0 17.1)"/><use xlink:href="#M" transform="matrix(1,0,0,1,683.2798345758615,930.8856494361086) translate(0 17.1)"/><use xlink:href="#g" transform="matrix(1,0,0,1,683.2798345758615,930.8856494361086) translate(96.80000000000001 17.1)"/><use xlink:href="#h" transform="matrix(1,0,0,1,683.2798345758615,930.8856494361086) translate(116.75000000000001 17.1)"/><g><use xlink:href="#N" transform="matrix(1,0,0,1,545,962.8856494361086) translate(0 17.1)"/></g><g><use xlink:href="#F" transform="matrix(1,0,0,1,683.2798345758615,962.8856494361086) translate(0 17.1)"/><use xlink:href="#g" transform="matrix(1,0,0,1,683.2798345758615,962.8856494361086) translate(96.80000000000001 17.1)"/><use xlink:href="#h" transform="matrix(1,0,0,1,683.2798345758615,962.8856494361086) translate(116.75000000000001 17.1)"/></g><g><use xlink:href="#O" transform="matrix(1,0,0,1,545,994.8856494361086) translate(0 17.1)"/></g><g><use xlink:href="#F" transform="matrix(1,0,0,1,683.2798345758615,994.8856494361086) translate(0 17.1)"/><use xlink:href="#g" transform="matrix(1,0,0,1,683.2798345758615,994.8856494361086) translate(96.80000000000001 17.1)"/><use xlink:href="#h" transform="matrix(1,0,0,1,683.2798345758615,994.8856494361086) translate(116.75000000000001 17.1)"/></g><path d="M103.12 722.1h-21.1l-1.82.13-1.75.42-1.67.7-1.54.94-1.37 1.16-1.17 1.37-.95 1.54-.7 1.66-.4 1.76-.15 1.8V838l.14 1.82.42 1.75.7 1.67.94 1.54 1.17 1.37 1.37 1.17 1.54.95 1.67.7 1.75.4 1.82.15h103.13v1H81.98l-1.94-.15-1.9-.46-1.82-.76-1.67-1.03-1.5-1.26-1.26-1.5-1.04-1.66-.75-1.82-.45-1.9-.15-1.94V733.57l.15-1.94.46-1.9.76-1.82 1.03-1.66 1.26-1.5 1.5-1.27 1.66-1.02 1.82-.75 1.9-.46 1.94-.15h21.14zM539 752.9h-27.48l-1.82.13-1.75.42-1.67.7-1.54.93-1.37 1.17-1.17 1.38-.94 1.53-.7 1.67-.42 1.76-.14 1.8v73.62l-.15 1.94-.46 1.9-.76 1.82-1.03 1.67-1.26 1.5-1.5 1.26-1.66 1.04-1.82.75-1.9.45-1.94.15H238.1v-1h249.38l1.82-.14 1.75-.42 1.67-.7 1.54-.94 1.37-1.17 1.17-1.37.94-1.54.7-1.67.42-1.75.14-1.82v-73.6l.15-1.95.46-1.9.76-1.82 1.03-1.66 1.26-1.5 1.5-1.27 1.66-1.02 1.82-.75 1.9-.46 1.94-.15H539z" stroke="#3a414a" stroke-width=".05" fill="#3a414a"/><path d="M117.88 721.6l-14.26 4.62v-9.27z" fill="#3a414a"/><path d="M119.5 721.6l-16.38 5.3v-10.63zm-15.38 3.93l12.14-3.94-12.14-3.96z" stroke="#3a414a" stroke-width=".05" fill="#3a414a"/><path d="M539.5 752.9h-.5v-1h.5z" fill="#3a414a"/><path d="M539.52 752.9h-.56v-1.04h.56zm-.5-1v.96h.46v-.95z" stroke="#3a414a" stroke-width=".05" fill="#3a414a"/><g><use xlink:href="#P" transform="matrix(1,0,0,1,492.1423581455339,726.7856494361085) translate(0.004999999999999005 14.4)"/><use xlink:href="#Q" transform="matrix(1,0,0,1,492.1423581455339,726.7856494361085) translate(15.004999999999999 14.4)"/></g><g><use xlink:href="#R" transform="matrix(1,0,0,1,82.63525491562422,738.1039638176392) translate(0.004999999999999005 14.4)"/><use xlink:href="#S" transform="matrix(1,0,0,1,82.63525491562422,738.1039638176392) translate(19.955000000000002 14.4)"/></g><g><use xlink:href="#T" transform="matrix(1,0,0,1,185.1498630346945,839.2) translate(0.004999999999999005 14.4)"/></g><path d="M178.35 376.5H91.52l-1.82.14-1.75.42-1.67.7-1.54.94-1.37 1.17-1.17 1.37-.95 1.54-.7 1.67-.4 1.75-.15 1.82v225.5l.14 1.83.42 1.75.7 1.67.94 1.54 1.17 1.38 1.37 1.17 1.54.95 1.67.7 1.75.4 1.82.16 27.48.03v1l-27.52-.04-1.94-.16-1.9-.46-1.82-.75-1.67-1.04-1.5-1.27-1.27-1.5-1.02-1.68-.75-1.8-.45-1.92-.15-1.93v-225.6l.15-1.93.46-1.9.76-1.82 1.03-1.67 1.26-1.5 1.5-1.26 1.66-1.04 1.82-.75 1.9-.45 1.94-.15h86.87zm304.77 0H245.3v-1h237.82z" stroke="#3a414a" stroke-width=".05" fill="#3a414a"/><path d="M119.5 625.1v1h-.5v-1z" fill="#3a414a"/><path d="M119.53 625.06v1.05h-.57v-1.04zm-.52 1h.47v-.95h-.46z" stroke="#3a414a" stroke-width=".05" fill="#3a414a"/><path d="M497.88 376l-14.26 4.63v-9.26z" fill="#3a414a"/><path d="M499.5 376l-16.38 5.32v-10.64zm-15.38 3.95l12.14-3.95-12.14-3.95z" stroke="#3a414a" stroke-width=".05" fill="#3a414a"/><g><use xlink:href="#P" transform="matrix(1,0,0,1,460.0298689042598,384.63525491562416) translate(0.004999999999999005 14.4)"/><use xlink:href="#Q" transform="matrix(1,0,0,1,460.0298689042598,384.63525491562416) translate(15.004999999999999 14.4)"/></g><g><use xlink:href="#R" transform="matrix(1,0,0,1,77.31173425180305,629.5653658071822) translate(0.004999999999999005 14.4)"/><use xlink:href="#S" transform="matrix(1,0,0,1,77.31173425180305,629.5653658071822) translate(19.955000000000002 14.4)"/></g><g><use xlink:href="#U" transform="matrix(1,0,0,1,178.34695696056883,365.19999999999993) translate(0.005000000000002558 14.4)"/></g><path d="M960.65 752.9H901v-1h59.65zm162.47-.4h-102.7l-.17.27-.36.12h-1.25v-1h.9v-.06l.4-.33h103.17z" stroke="#3a414a" stroke-width=".05" fill="#3a414a"/><path d="M901 752.9h-.5v-1h.5z" fill="#3a414a"/><path d="M901.04 752.9h-.56v-1.04h.56zm-.5-1v.96h.45v-.95z" stroke="#3a414a" stroke-width=".05" fill="#3a414a"/><path d="M1137.88 752l-14.26 4.63v-9.26z" fill="#3a414a"/><path d="M1139.5 752l-16.38 5.32v-10.64zm-15.38 3.95l12.14-3.95-12.14-3.95z" stroke="#3a414a" stroke-width=".05" fill="#3a414a"/><g><use xlink:href="#R" transform="matrix(1,0,0,1,1098.0377646438203,760.6352549156243) translate(0.004999999999999005 14.4)"/><use xlink:href="#S" transform="matrix(1,0,0,1,1098.0377646438203,760.6352549156243) translate(19.955000000000002 14.4)"/></g><g><use xlink:href="#P" transform="matrix(1,0,0,1,900.4306942593163,756.3856494361086) translate(0.004999999999999005 14.4)"/><use xlink:href="#Q" transform="matrix(1,0,0,1,900.4306942593163,756.3856494361086) translate(15.004999999999999 14.4)"/></g><g><use xlink:href="#V" transform="matrix(1,0,0,1,960.6531249758937,741.5856494361086) translate(0.004999999999999005 14.4)"/></g><path d="M990.5 675.98l.14 1.82.42 1.75.7 1.67.94 1.54 1.17 1.37 1.37 1.17 1.54.95 1.67.7 1.75.4 1.82.15H1139v1h-137.02l-1.94-.15-1.9-.46-1.82-.76-1.67-1.03-1.5-1.26-1.26-1.5-1.04-1.66-.75-1.82-.45-1.9-.15-1.94V542.8h1zm-10.54-300.33l1.9.46 1.82.76 1.67 1.03 1.5 1.26 1.26 1.5 1.04 1.66.75 1.82.45 1.9.15 1.94V521.2h-1V388.02l-.14-1.82-.42-1.75-.7-1.67-.94-1.54-1.17-1.37-1.37-1.17-1.54-.94-1.67-.7-1.75-.42-1.82-.14h-121.1v-1h121.14z" stroke="#3a414a" stroke-width=".05" fill="#3a414a"/><path d="M856.38 380.63L842.12 376l14.26-4.63z" fill="#3a414a"/><path d="M856.88 381.32L840.5 376l16.38-5.32zM843.74 376l12.14 3.95v-7.9z" stroke="#3a414a" stroke-width=".05" fill="#3a414a"/><path d="M1139.5 688.5h-.5v-1h.5z" fill="#3a414a"/><path d="M1139.53 688.52h-.57v-1.04h.57zm-.52-1v.96h.47v-.96z" stroke="#3a414a" stroke-width=".05" fill="#3a414a"/><g><use xlink:href="#R" transform="matrix(1,0,0,1,1084.9349321080156,662.4000000000001) translate(0.004999999999999005 14.4)"/><use xlink:href="#S" transform="matrix(1,0,0,1,1084.9349321080156,662.4000000000001) translate(19.955000000000002 14.4)"/></g><g><use xlink:href="#P" transform="matrix(1,0,0,1,857.3327709503164,350.3999999999999) translate(0.004999999999999005 14.4)"/><use xlink:href="#Q" transform="matrix(1,0,0,1,857.3327709503164,350.3999999999999) translate(15.004999999999999 14.4)"/></g><g><use xlink:href="#W" transform="matrix(1,0,0,1,944.0499848329341,521.2) translate(0.005000000000002558 14.4)"/></g><defs><path fill="#333" d="M238-179c0 84-86 86-175 82L45 0H11l48-248c82 0 179-12 179 69zm-34 1c0-53-64-42-116-43l-19 98c63 0 135 9 135-55" id="X"/><path fill="#333" d="M66-151c12-25 30-51 66-40l-6 26C45-176 58-65 38 0H6l36-190h30" id="Y"/><path fill="#333" d="M30-147c31-64 166-65 159 27C183-49 158 1 86 4 9 8 1-88 30-147zM88-20c53 0 68-48 68-100 0-31-11-51-44-50-52 1-68 46-68 97 0 32 13 53 44 53" id="Z"/><path fill="#333" d="M133-28C103 26-5 8 13-77c13-62 24-115 90-117 29-1 46 15 56 35l19-102h32L160 0h-30zM45-64c-2 27 10 43 35 43 54-1 69-50 69-103 0-29-15-46-42-46-53-1-58 58-62 106" id="aa"/><path fill="#333" d="M67 3c-93-2-31-127-26-193h32L48-50c-3 39 53 32 70 12 30-34 30-101 43-152h32L157 0h-30c1-10 6-24 4-33-14 20-29 37-64 36" id="ab"/><path fill="#333" d="M44-68c0 29 11 47 38 47 30 0 42-19 51-41l28 9C148-21 126 4 82 4 31 4 10-29 12-85c3-77 74-140 146-93 12 8 15 23 18 40l-31 5c-1-22-13-36-36-36-52 0-65 49-65 101" id="ac"/><path fill="#333" d="M51-54c-9 22 5 41 31 30L79-1C43 14 10-4 19-52l22-115H19l5-23h22l19-43h21l-9 43h35l-4 23H73" id="ad"/><g id="a"><use transform="matrix(0.05,0,0,0.05,0,0)" xlink:href="#X"/><use transform="matrix(0.05,0,0,0.05,12,0)" xlink:href="#Y"/><use transform="matrix(0.05,0,0,0.05,17.95,0)" xlink:href="#Z"/><use transform="matrix(0.05,0,0,0.05,27.950000000000003,0)" xlink:href="#aa"/><use transform="matrix(0.05,0,0,0.05,37.95,0)" xlink:href="#ab"/><use transform="matrix(0.05,0,0,0.05,47.95,0)" xlink:href="#ac"/><use transform="matrix(0.05,0,0,0.05,56.95,0)" xlink:href="#ad"/></g><path fill="#333" d="M67-162c32-53 139-36 121 50C175-51 163 2 97 4 68 4 52-11 42-31 38 6 28 39 22 75H-9l50-265h29c-1 10 0 20-3 28zm89 36c0-26-10-43-35-43-54 0-67 50-69 103-1 29 14 45 42 46 53 0 62-58 62-106" id="ae"/><path fill="#333" d="M14 0l48-248h34L48 0H14" id="af"/><g id="b"><use transform="matrix(0.05,0,0,0.05,0,0)" xlink:href="#ae"/><use transform="matrix(0.05,0,0,0.05,10,0)" xlink:href="#Y"/><use transform="matrix(0.05,0,0,0.05,15.949999999999998,0)" xlink:href="#Z"/><use transform="matrix(0.05,0,0,0.05,25.950000000000003,0)" xlink:href="#aa"/><use transform="matrix(0.05,0,0,0.05,35.95,0)" xlink:href="#ab"/><use transform="matrix(0.05,0,0,0.05,45.95,0)" xlink:href="#ac"/><use transform="matrix(0.05,0,0,0.05,54.95,0)" xlink:href="#ad"/><use transform="matrix(0.05,0,0,0.05,59.95,0)" xlink:href="#af"/><use transform="matrix(0.05,0,0,0.05,64.95,0)" xlink:href="#aa"/></g><path fill="#333" d="M50-231l6-30h32l-6 30H50zM6 0l37-190h31L37 0H6" id="ag"/><path fill="#333" d="M67-158c22-48 132-52 116 29L158 0h-32l25-140c3-38-53-32-70-12C52-117 51-52 38 0H6l36-190h30" id="ah"/><g id="c"><use transform="matrix(0.05,0,0,0.05,0,0)" xlink:href="#ag"/><use transform="matrix(0.05,0,0,0.05,3.95,0)" xlink:href="#ah"/><use transform="matrix(0.05,0,0,0.05,13.949999999999998,0)" xlink:href="#ad"/></g><path fill="#333" d="M180 0L97-118 63-96 45 0H11l48-248h34L69-126c44-43 94-81 141-122h43L121-137 219 0h-39" id="ai"/><g id="d"><use transform="matrix(0.05,0,0,0.05,0,0)" xlink:href="#X"/><use transform="matrix(0.05,0,0,0.05,12,0)" xlink:href="#ai"/></g><path fill="#333" d="M165-48c-4 18 1 34 23 27l-3 20c-29 8-62 0-52-35h-2C116-14 99 4 63 4 30 4 8-16 8-49c0-68 71-67 138-67 10-26 0-56-31-54-26 1-42 9-47 31l-32-5c8-67 160-71 144 15-5 28-9 54-15 81zM42-50c3 52 80 24 89-6 7-12 7-24 11-38-47 1-103-4-100 44" id="aj"/><path fill="#333" d="M248-111c6-24 9-61-24-58-72 9-57 108-77 169h-31l26-142c3-37-50-30-64-10C52-115 50-51 37 0H6l36-190h30c-1 10-6 24-4 32 13-43 101-52 105 5 13-22 29-41 61-41 90 0 28 129 23 194h-31" id="ak"/><path fill="#333" d="M111-194c62-3 86 47 72 106H45c-7 38 6 69 45 68 27-1 43-14 53-32l24 11C152-15 129 4 87 4 38 3 12-23 12-71c0-70 32-119 99-123zm44 81c14-66-71-72-95-28-4 8-8 17-11 28h106" id="al"/><g id="e"><use transform="matrix(0.05,0,0,0.05,0,0)" xlink:href="#ah"/><use transform="matrix(0.05,0,0,0.05,10,0)" xlink:href="#aj"/><use transform="matrix(0.05,0,0,0.05,20,0)" xlink:href="#ak"/><use transform="matrix(0.05,0,0,0.05,34.95,0)" xlink:href="#al"/></g><path fill="#333" d="M89 0H52L20-190h33L74-25l89-165h34" id="am"/><path fill="#333" d="M67-158c15-20 31-36 64-36 94 0 33 127 27 194h-32l25-140c3-38-53-32-70-12C52-117 51-51 37 0H6l51-261h31" id="an"/><path fill="#333" d="M17-49c1-102 45-165 103-212h30C92-210 49-145 49-46 49 4 63 43 85 75H54C30 43 18 2 17-49" id="ao"/><path fill="#333" d="M9 0l6-27h63l36-188-63 39 6-31 66-41h29L110-27h60l-5 27H9" id="ap"/><path fill="#333" d="M16-82c0-90 25-169 113-169 48 0 68 33 68 82C197-79 170 4 84 4 37 4 16-31 16-82zm30 5c0 32 11 55 40 55 69 0 76-79 80-149 2-32-10-55-39-55-69 0-81 81-81 149" id="aq"/><path fill="#333" d="M98-137C97-35 54 29-4 75h-31C23 23 67-41 67-140c0-50-15-89-37-121h31c24 32 36 73 37 124" id="ar"/><g id="f"><use transform="matrix(0.05,0,0,0.05,0,0)" xlink:href="#am"/><use transform="matrix(0.05,0,0,0.05,9,0)" xlink:href="#aj"/><use transform="matrix(0.05,0,0,0.05,19,0)" xlink:href="#Y"/><use transform="matrix(0.05,0,0,0.05,24.95,0)" xlink:href="#ac"/><use transform="matrix(0.05,0,0,0.05,33.95,0)" xlink:href="#an"/><use transform="matrix(0.05,0,0,0.05,43.95,0)" xlink:href="#aj"/><use transform="matrix(0.05,0,0,0.05,53.95,0)" xlink:href="#Y"/><use transform="matrix(0.05,0,0,0.05,59.900000000000006,0)" xlink:href="#ao"/><use transform="matrix(0.05,0,0,0.05,65.85000000000001,0)" xlink:href="#ap"/><use transform="matrix(0.05,0,0,0.05,75.85000000000001,0)" xlink:href="#aq"/><use transform="matrix(0.05,0,0,0.05,85.85000000000001,0)" xlink:href="#aq"/><use transform="matrix(0.05,0,0,0.05,95.85000000000001,0)" xlink:href="#ar"/></g><path fill="#333" d="M222 0l43-216c-8 16-17 34-26 49L143 0h-22L81-216 41 0H11l48-248h42l38 208 116-208h45L252 0h-30" id="as"/><use transform="matrix(0.05,0,0,0.05,0,0)" xlink:href="#as" id="g"/><g id="h"><use transform="matrix(0.05,0,0,0.05,0,0)" xlink:href="#ao"/><use transform="matrix(0.05,0,0,0.05,5.95,0)" xlink:href="#ap"/><use transform="matrix(0.05,0,0,0.05,15.949999999999998,0)" xlink:href="#ar"/></g><g id="i"><use transform="matrix(0.05,0,0,0.05,0,0)" xlink:href="#ae"/><use transform="matrix(0.05,0,0,0.05,10,0)" xlink:href="#Y"/><use transform="matrix(0.05,0,0,0.05,15.949999999999998,0)" xlink:href="#ag"/><use transform="matrix(0.05,0,0,0.05,19.9,0)" xlink:href="#ac"/><use transform="matrix(0.05,0,0,0.05,28.899999999999995,0)" xlink:href="#al"/></g><path fill="#333" d="M76-167L44 0H12l33-167H18l4-23h27c3-47 25-81 82-69l-4 24c-35-8-44 15-46 45h37l-5 23H76" id="at"/><path fill="#333" d="M6 0l50-261h32L37 0H6" id="au"/><g id="j"><use transform="matrix(0.05,0,0,0.05,0,0)" xlink:href="#at"/><use transform="matrix(0.05,0,0,0.05,5,0)" xlink:href="#au"/><use transform="matrix(0.05,0,0,0.05,8.95,0)" xlink:href="#Z"/><use transform="matrix(0.05,0,0,0.05,18.95,0)" xlink:href="#aj"/><use transform="matrix(0.05,0,0,0.05,28.950000000000003,0)" xlink:href="#ad"/></g><path fill="#333" d="M133-28C103 26-5 8 13-77c13-62 24-115 90-117 29-1 46 15 56 35 2-12 6-24 8-34h31L144 75h-31zM45-64c-2 27 10 43 35 43 54-1 69-50 69-103 0-29-15-46-42-46-53-1-58 58-62 106" id="av"/><path fill="#333" d="M198-190L69 30C53 58 25 83-20 72c4-11-1-27 19-22 33-1 43-29 59-52L20-190h32L79-34l84-156h35" id="aw"/><path fill="#333" d="M20-101c0-91 52-143 145-150 126-9 127 168 53 223-23 17-55 32-93 32C57 4 20-33 20-101zm216-33c5-57-18-91-73-90-77 1-110 51-110 125 0 49 23 75 73 75 72-1 104-45 110-110" id="ax"/><path fill="#333" d="M179 0l23-115H67L45 0H11l48-248h34L72-143h135l21-105h32L212 0h-33" id="ay"/><g id="k"><use transform="matrix(0.05,0,0,0.05,0,0)" xlink:href="#av"/><use transform="matrix(0.05,0,0,0.05,10,0)" xlink:href="#ad"/><use transform="matrix(0.05,0,0,0.05,15,0)" xlink:href="#aw"/><use transform="matrix(0.05,0,0,0.05,24,0)" xlink:href="#ax"/><use transform="matrix(0.05,0,0,0.05,38,0)" xlink:href="#ah"/><use transform="matrix(0.05,0,0,0.05,48,0)" xlink:href="#ay"/><use transform="matrix(0.05,0,0,0.05,60.95,0)" xlink:href="#aj"/><use transform="matrix(0.05,0,0,0.05,70.95,0)" xlink:href="#ah"/><use transform="matrix(0.05,0,0,0.05,80.95,0)" xlink:href="#aa"/></g><path fill="#333" d="M151-220L108 0H75l42-220H32l6-28h203l-5 28h-85" id="az"/><path fill="#333" d="M55-144c13 50 104 24 104 88C159 21 15 23 1-39l26-10c6 40 102 42 102-4-13-50-104-23-104-87 0-71 143-71 148-8l-29 4c-5-35-85-37-89 0" id="aA"/><g id="l"><use transform="matrix(0.05,0,0,0.05,0,0)" xlink:href="#az"/><use transform="matrix(0.05,0,0,0.05,9.600000000000001,0)" xlink:href="#Y"/><use transform="matrix(0.05,0,0,0.05,15.55,0)" xlink:href="#aj"/><use transform="matrix(0.05,0,0,0.05,25.55,0)" xlink:href="#ah"/><use transform="matrix(0.05,0,0,0.05,35.55,0)" xlink:href="#aA"/><use transform="matrix(0.05,0,0,0.05,44.55,0)" xlink:href="#aj"/><use transform="matrix(0.05,0,0,0.05,54.54999999999999,0)" xlink:href="#ac"/><use transform="matrix(0.05,0,0,0.05,63.54999999999999,0)" xlink:href="#ad"/><use transform="matrix(0.05,0,0,0.05,68.55,0)" xlink:href="#ag"/><use transform="matrix(0.05,0,0,0.05,72.5,0)" xlink:href="#Z"/><use transform="matrix(0.05,0,0,0.05,82.5,0)" xlink:href="#ah"/></g><g id="m"><use transform="matrix(0.05,0,0,0.05,0,0)" xlink:href="#ad"/><use transform="matrix(0.05,0,0,0.05,5,0)" xlink:href="#Y"/><use transform="matrix(0.05,0,0,0.05,10.95,0)" xlink:href="#aj"/><use transform="matrix(0.05,0,0,0.05,20.95,0)" xlink:href="#ah"/><use transform="matrix(0.05,0,0,0.05,30.950000000000003,0)" xlink:href="#aA"/><use transform="matrix(0.05,0,0,0.05,39.95,0)" xlink:href="#aj"/><use transform="matrix(0.05,0,0,0.05,49.95,0)" xlink:href="#ac"/><use transform="matrix(0.05,0,0,0.05,58.95,0)" xlink:href="#ad"/><use transform="matrix(0.05,0,0,0.05,63.95,0)" xlink:href="#ag"/><use transform="matrix(0.05,0,0,0.05,67.9,0)" xlink:href="#Z"/><use transform="matrix(0.05,0,0,0.05,77.9,0)" xlink:href="#ah"/><use transform="matrix(0.05,0,0,0.05,87.9,0)" xlink:href="#af"/><use transform="matrix(0.05,0,0,0.05,92.9,0)" xlink:href="#aa"/></g><path fill="#333" d="M87-220l-18 92h140l-5 28H64L45 0H11l48-248h178l-5 28H87" id="aB"/><g id="n"><use transform="matrix(0.05,0,0,0.05,0,0)" xlink:href="#aB"/><use transform="matrix(0.05,0,0,0.05,10.950000000000001,0)" xlink:href="#ai"/></g><path fill="#333" d="M248-139C247-14 144 9 11 0l48-248c105-6 190 8 189 109zm-34 0c1-70-52-87-126-82L50-27c98 7 163-21 164-112" id="aC"/><g id="o"><use transform="matrix(0.05,0,0,0.05,0,0)" xlink:href="#ae"/><use transform="matrix(0.05,0,0,0.05,10,0)" xlink:href="#ab"/><use transform="matrix(0.05,0,0,0.05,20,0)" xlink:href="#Y"/><use transform="matrix(0.05,0,0,0.05,25.950000000000003,0)" xlink:href="#ac"/><use transform="matrix(0.05,0,0,0.05,34.95,0)" xlink:href="#an"/><use transform="matrix(0.05,0,0,0.05,44.95,0)" xlink:href="#aj"/><use transform="matrix(0.05,0,0,0.05,54.95,0)" xlink:href="#aA"/><use transform="matrix(0.05,0,0,0.05,63.95,0)" xlink:href="#al"/><use transform="matrix(0.05,0,0,0.05,73.95,0)" xlink:href="#aa"/><use transform="matrix(0.05,0,0,0.05,83.95,0)" xlink:href="#aC"/><use transform="matrix(0.05,0,0,0.05,96.9,0)" xlink:href="#aj"/><use transform="matrix(0.05,0,0,0.05,106.9,0)" xlink:href="#ad"/><use transform="matrix(0.05,0,0,0.05,111.9,0)" xlink:href="#al"/></g><g id="p"><use transform="matrix(0.05,0,0,0.05,0,0)" xlink:href="#aa"/><use transform="matrix(0.05,0,0,0.05,10,0)" xlink:href="#aj"/><use transform="matrix(0.05,0,0,0.05,20,0)" xlink:href="#ad"/><use transform="matrix(0.05,0,0,0.05,25,0)" xlink:href="#al"/><use transform="matrix(0.05,0,0,0.05,35,0)" xlink:href="#ad"/><use transform="matrix(0.05,0,0,0.05,40,0)" xlink:href="#ag"/><use transform="matrix(0.05,0,0,0.05,43.95,0)" xlink:href="#ak"/><use transform="matrix(0.05,0,0,0.05,58.900000000000006,0)" xlink:href="#al"/></g><use transform="matrix(0.05,0,0,0.05,0,0)" xlink:href="#as" id="q"/><g id="r"><use transform="matrix(0.05,0,0,0.05,0,0)" xlink:href="#ao"/><use transform="matrix(0.05,0,0,0.05,5.95,0)" xlink:href="#ap"/><use transform="matrix(0.05,0,0,0.05,15.949999999999998,0)" xlink:href="#ar"/></g><g id="s"><use transform="matrix(0.05,0,0,0.05,0,0)" xlink:href="#av"/><use transform="matrix(0.05,0,0,0.05,10,0)" xlink:href="#ab"/><use transform="matrix(0.05,0,0,0.05,20,0)" xlink:href="#aj"/><use transform="matrix(0.05,0,0,0.05,30,0)" xlink:href="#ah"/><use transform="matrix(0.05,0,0,0.05,40,0)" xlink:href="#ad"/><use transform="matrix(0.05,0,0,0.05,45,0)" xlink:href="#ag"/><use transform="matrix(0.05,0,0,0.05,48.95,0)" xlink:href="#ad"/><use transform="matrix(0.05,0,0,0.05,53.95,0)" xlink:href="#aw"/></g><g id="t"><use transform="matrix(0.05,0,0,0.05,0,0)" xlink:href="#ab"/><use transform="matrix(0.05,0,0,0.05,10,0)" xlink:href="#aA"/><use transform="matrix(0.05,0,0,0.05,19,0)" xlink:href="#al"/><use transform="matrix(0.05,0,0,0.05,29,0)" xlink:href="#Y"/><use transform="matrix(0.05,0,0,0.05,34.95,0)" xlink:href="#af"/><use transform="matrix(0.05,0,0,0.05,39.95,0)" xlink:href="#aa"/></g><path fill="#333" d="M249-183c0 48-29 72-75 77L221 0h-36l-43-103H65L45 0H11l48-248c83 2 190-17 190 65zm-34 3c0-55-74-39-127-41l-18 92c63-1 145 13 145-51" id="aD"/><path fill="#333" d="M188 0h-37l-8-164L71 0H34L18-190h31l8 164 75-164h34l8 164 74-164h31" id="aE"/><g id="u"><use transform="matrix(0.05,0,0,0.05,0,0)" xlink:href="#aD"/><use transform="matrix(0.05,0,0,0.05,12.950000000000001,0)" xlink:href="#al"/><use transform="matrix(0.05,0,0,0.05,22.950000000000003,0)" xlink:href="#am"/><use transform="matrix(0.05,0,0,0.05,31.950000000000003,0)" xlink:href="#ag"/><use transform="matrix(0.05,0,0,0.05,35.900000000000006,0)" xlink:href="#al"/><use transform="matrix(0.05,0,0,0.05,45.900000000000006,0)" xlink:href="#aE"/></g><g id="v"><use transform="matrix(0.05,0,0,0.05,0,0)" xlink:href="#Y"/><use transform="matrix(0.05,0,0,0.05,5.95,0)" xlink:href="#al"/><use transform="matrix(0.05,0,0,0.05,15.949999999999998,0)" xlink:href="#am"/><use transform="matrix(0.05,0,0,0.05,24.95,0)" xlink:href="#ag"/><use transform="matrix(0.05,0,0,0.05,28.899999999999995,0)" xlink:href="#al"/><use transform="matrix(0.05,0,0,0.05,38.9,0)" xlink:href="#aE"/><use transform="matrix(0.05,0,0,0.05,51.85,0)" xlink:href="#af"/><use transform="matrix(0.05,0,0,0.05,56.85,0)" xlink:href="#aa"/></g><g id="w"><use transform="matrix(0.05,0,0,0.05,0,0)" xlink:href="#Y"/><use transform="matrix(0.05,0,0,0.05,5.95,0)" xlink:href="#al"/><use transform="matrix(0.05,0,0,0.05,15.949999999999998,0)" xlink:href="#am"/><use transform="matrix(0.05,0,0,0.05,24.95,0)" xlink:href="#ag"/><use transform="matrix(0.05,0,0,0.05,28.899999999999995,0)" xlink:href="#al"/><use transform="matrix(0.05,0,0,0.05,38.9,0)" xlink:href="#aE"/><use transform="matrix(0.05,0,0,0.05,51.85,0)" xlink:href="#aC"/><use transform="matrix(0.05,0,0,0.05,64.8,0)" xlink:href="#aj"/><use transform="matrix(0.05,0,0,0.05,74.8,0)" xlink:href="#ad"/><use transform="matrix(0.05,0,0,0.05,79.8,0)" xlink:href="#al"/></g><path fill="#333" d="M103-194c29 0 47 14 56 36 2-11 5-23 8-32h30L160-5C157 61 82 97 21 62 9 55 4 45 1 30l28-7c7 42 83 31 92-3 4-16 9-38 13-55-13 20-29 36-62 36-40 0-60-25-60-64 0-71 23-131 91-131zm4 24c-53 0-58 54-61 104-2 27 10 44 36 44 49 0 65-50 67-102 1-29-15-46-42-46" id="aF"/><g id="x"><use transform="matrix(0.05,0,0,0.05,0,0)" xlink:href="#Y"/><use transform="matrix(0.05,0,0,0.05,5.95,0)" xlink:href="#aj"/><use transform="matrix(0.05,0,0,0.05,15.949999999999998,0)" xlink:href="#ad"/><use transform="matrix(0.05,0,0,0.05,20.95,0)" xlink:href="#ag"/><use transform="matrix(0.05,0,0,0.05,24.9,0)" xlink:href="#ah"/><use transform="matrix(0.05,0,0,0.05,34.9,0)" xlink:href="#aF"/></g><path fill="#333" d="M124 0L87-78 21 0h-35l86-98-46-92h33l34 74 61-74h37l-83 92 50 98h-34" id="aG"/><g id="y"><use transform="matrix(0.05,0,0,0.05,0,0)" xlink:href="#Y"/><use transform="matrix(0.05,0,0,0.05,5.95,0)" xlink:href="#al"/><use transform="matrix(0.05,0,0,0.05,15.949999999999998,0)" xlink:href="#am"/><use transform="matrix(0.05,0,0,0.05,24.95,0)" xlink:href="#ag"/><use transform="matrix(0.05,0,0,0.05,28.899999999999995,0)" xlink:href="#al"/><use transform="matrix(0.05,0,0,0.05,38.9,0)" xlink:href="#aE"/><use transform="matrix(0.05,0,0,0.05,51.85,0)" xlink:href="#az"/><use transform="matrix(0.05,0,0,0.05,61.150000000000006,0)" xlink:href="#al"/><use transform="matrix(0.05,0,0,0.05,71.15,0)" xlink:href="#aG"/><use transform="matrix(0.05,0,0,0.05,80.15,0)" xlink:href="#ad"/></g><path fill="#333" d="M123-251c66 0 92 69 53 113C138-94 73-75 39-27h128l-5 27H-2c17-92 123-93 159-163 14-28-1-64-36-62-29 2-46 17-54 41l-30-6c13-36 37-61 86-61" id="aH"/><g id="z"><use transform="matrix(0.05,0,0,0.05,0,0)" xlink:href="#am"/><use transform="matrix(0.05,0,0,0.05,9,0)" xlink:href="#aj"/><use transform="matrix(0.05,0,0,0.05,19,0)" xlink:href="#Y"/><use transform="matrix(0.05,0,0,0.05,24.95,0)" xlink:href="#ac"/><use transform="matrix(0.05,0,0,0.05,33.95,0)" xlink:href="#an"/><use transform="matrix(0.05,0,0,0.05,43.95,0)" xlink:href="#aj"/><use transform="matrix(0.05,0,0,0.05,53.95,0)" xlink:href="#Y"/><use transform="matrix(0.05,0,0,0.05,59.900000000000006,0)" xlink:href="#ao"/><use transform="matrix(0.05,0,0,0.05,65.85000000000001,0)" xlink:href="#aH"/><use transform="matrix(0.05,0,0,0.05,75.85000000000001,0)" xlink:href="#aq"/><use transform="matrix(0.05,0,0,0.05,85.85000000000001,0)" xlink:href="#aq"/><use transform="matrix(0.05,0,0,0.05,95.85000000000001,0)" xlink:href="#ar"/></g><g id="A"><use transform="matrix(0.05,0,0,0.05,0,0)" xlink:href="#ao"/><use transform="matrix(0.05,0,0,0.05,5.95,0)" xlink:href="#aq"/><use transform="matrix(0.05,0,0,0.05,15.949999999999998,0)" xlink:href="#ar"/></g><path fill="#333" d="M62-99C39-31 123 0 170-40s38-139 58-208h34C234-144 253 4 115 4 49 4 18-43 31-112l26-136h34" id="aI"/><g id="B"><use transform="matrix(0.05,0,0,0.05,0,0)" xlink:href="#aI"/><use transform="matrix(0.05,0,0,0.05,12.950000000000001,0)" xlink:href="#aA"/><use transform="matrix(0.05,0,0,0.05,21.950000000000003,0)" xlink:href="#al"/><use transform="matrix(0.05,0,0,0.05,31.950000000000003,0)" xlink:href="#Y"/></g><g id="D"><use transform="matrix(0.05,0,0,0.05,0,0)" xlink:href="#ab"/><use transform="matrix(0.05,0,0,0.05,10,0)" xlink:href="#aA"/><use transform="matrix(0.05,0,0,0.05,19,0)" xlink:href="#al"/><use transform="matrix(0.05,0,0,0.05,29,0)" xlink:href="#Y"/><use transform="matrix(0.05,0,0,0.05,34.95,0)" xlink:href="#af"/><use transform="matrix(0.05,0,0,0.05,39.95,0)" xlink:href="#aa"/></g><path fill="#333" d="M173 0L80-213 41 0H11l48-248h37l94 214 40-214h30L212 0h-39" id="aJ"/><g id="E"><use transform="matrix(0.05,0,0,0.05,0,0)" xlink:href="#at"/><use transform="matrix(0.05,0,0,0.05,5,0)" xlink:href="#ag"/><use transform="matrix(0.05,0,0,0.05,8.95,0)" xlink:href="#Y"/><use transform="matrix(0.05,0,0,0.05,14.899999999999999,0)" xlink:href="#aA"/><use transform="matrix(0.05,0,0,0.05,23.9,0)" xlink:href="#ad"/><use transform="matrix(0.05,0,0,0.05,28.899999999999995,0)" xlink:href="#aJ"/><use transform="matrix(0.05,0,0,0.05,41.85,0)" xlink:href="#aj"/><use transform="matrix(0.05,0,0,0.05,51.85,0)" xlink:href="#ak"/><use transform="matrix(0.05,0,0,0.05,66.8,0)" xlink:href="#al"/></g><path fill="#333" d="M151-85c6-55-69-56-94-29H26l34-134h141l-5 27H84l-20 79c41-34 127-11 121 53C199 13 30 38 8-54l29-8C52 0 159-13 151-85" id="aK"/><g id="F"><use transform="matrix(0.05,0,0,0.05,0,0)" xlink:href="#am"/><use transform="matrix(0.05,0,0,0.05,9,0)" xlink:href="#aj"/><use transform="matrix(0.05,0,0,0.05,19,0)" xlink:href="#Y"/><use transform="matrix(0.05,0,0,0.05,24.95,0)" xlink:href="#ac"/><use transform="matrix(0.05,0,0,0.05,33.95,0)" xlink:href="#an"/><use transform="matrix(0.05,0,0,0.05,43.95,0)" xlink:href="#aj"/><use transform="matrix(0.05,0,0,0.05,53.95,0)" xlink:href="#Y"/><use transform="matrix(0.05,0,0,0.05,59.900000000000006,0)" xlink:href="#ao"/><use transform="matrix(0.05,0,0,0.05,65.85000000000001,0)" xlink:href="#aK"/><use transform="matrix(0.05,0,0,0.05,75.85000000000001,0)" xlink:href="#aq"/><use transform="matrix(0.05,0,0,0.05,85.85000000000001,0)" xlink:href="#ar"/></g><g id="G"><use transform="matrix(0.05,0,0,0.05,0,0)" xlink:href="#au"/><use transform="matrix(0.05,0,0,0.05,3.95,0)" xlink:href="#aj"/><use transform="matrix(0.05,0,0,0.05,13.949999999999998,0)" xlink:href="#aA"/><use transform="matrix(0.05,0,0,0.05,22.95,0)" xlink:href="#ad"/><use transform="matrix(0.05,0,0,0.05,27.950000000000003,0)" xlink:href="#aJ"/><use transform="matrix(0.05,0,0,0.05,40.9,0)" xlink:href="#aj"/><use transform="matrix(0.05,0,0,0.05,50.9,0)" xlink:href="#ak"/><use transform="matrix(0.05,0,0,0.05,65.85,0)" xlink:href="#al"/></g><g id="H"><use transform="matrix(0.05,0,0,0.05,0,0)" xlink:href="#al"/><use transform="matrix(0.05,0,0,0.05,10,0)" xlink:href="#ak"/><use transform="matrix(0.05,0,0,0.05,24.950000000000003,0)" xlink:href="#aj"/><use transform="matrix(0.05,0,0,0.05,34.95,0)" xlink:href="#ag"/><use transform="matrix(0.05,0,0,0.05,38.900000000000006,0)" xlink:href="#au"/></g><use transform="matrix(0.05,0,0,0.05,0,0)" xlink:href="#ap" id="I"/><g id="J"><use transform="matrix(0.05,0,0,0.05,0,0)" xlink:href="#aj"/><use transform="matrix(0.05,0,0,0.05,10,0)" xlink:href="#aa"/><use transform="matrix(0.05,0,0,0.05,20,0)" xlink:href="#aa"/><use transform="matrix(0.05,0,0,0.05,30,0)" xlink:href="#Y"/><use transform="matrix(0.05,0,0,0.05,35.95,0)" xlink:href="#al"/><use transform="matrix(0.05,0,0,0.05,45.95,0)" xlink:href="#aA"/><use transform="matrix(0.05,0,0,0.05,54.95,0)" xlink:href="#aA"/></g><g id="K"><use transform="matrix(0.05,0,0,0.05,0,0)" xlink:href="#aA"/><use transform="matrix(0.05,0,0,0.05,9,0)" xlink:href="#ad"/><use transform="matrix(0.05,0,0,0.05,14,0)" xlink:href="#aj"/><use transform="matrix(0.05,0,0,0.05,24,0)" xlink:href="#ad"/><use transform="matrix(0.05,0,0,0.05,29,0)" xlink:href="#al"/></g><path fill="#333" d="M125-24c46 0 70-25 89-51l25 16C214-24 183 4 123 4 8 4-5-146 60-208c32-50 158-61 191-5 5 7 9 14 11 22l-32 10c-9-28-33-43-69-43-74 0-108 51-108 125 0 46 24 75 72 75" id="aL"/><g id="L"><use transform="matrix(0.05,0,0,0.05,0,0)" xlink:href="#ae"/><use transform="matrix(0.05,0,0,0.05,10,0)" xlink:href="#Z"/><use transform="matrix(0.05,0,0,0.05,20,0)" xlink:href="#aA"/><use transform="matrix(0.05,0,0,0.05,29,0)" xlink:href="#ad"/><use transform="matrix(0.05,0,0,0.05,34,0)" xlink:href="#aj"/><use transform="matrix(0.05,0,0,0.05,44,0)" xlink:href="#au"/><use transform="matrix(0.05,0,0,0.05,47.95,0)" xlink:href="#aL"/><use transform="matrix(0.05,0,0,0.05,60.900000000000006,0)" xlink:href="#Z"/><use transform="matrix(0.05,0,0,0.05,70.9,0)" xlink:href="#aa"/><use transform="matrix(0.05,0,0,0.05,80.9,0)" xlink:href="#al"/></g><g id="M"><use transform="matrix(0.05,0,0,0.05,0,0)" xlink:href="#am"/><use transform="matrix(0.05,0,0,0.05,9,0)" xlink:href="#aj"/><use transform="matrix(0.05,0,0,0.05,19,0)" xlink:href="#Y"/><use transform="matrix(0.05,0,0,0.05,24.95,0)" xlink:href="#ac"/><use transform="matrix(0.05,0,0,0.05,33.95,0)" xlink:href="#an"/><use transform="matrix(0.05,0,0,0.05,43.95,0)" xlink:href="#aj"/><use transform="matrix(0.05,0,0,0.05,53.95,0)" xlink:href="#Y"/><use transform="matrix(0.05,0,0,0.05,59.900000000000006,0)" xlink:href="#ao"/><use transform="matrix(0.05,0,0,0.05,65.85000000000001,0)" xlink:href="#aH"/><use transform="matrix(0.05,0,0,0.05,75.85000000000001,0)" xlink:href="#aq"/><use transform="matrix(0.05,0,0,0.05,85.85000000000001,0)" xlink:href="#ar"/></g><g id="N"><use transform="matrix(0.05,0,0,0.05,0,0)" xlink:href="#ac"/><use transform="matrix(0.05,0,0,0.05,9,0)" xlink:href="#ag"/><use transform="matrix(0.05,0,0,0.05,12.949999999999998,0)" xlink:href="#ad"/><use transform="matrix(0.05,0,0,0.05,17.95,0)" xlink:href="#aw"/></g><g id="O"><use transform="matrix(0.05,0,0,0.05,0,0)" xlink:href="#ac"/><use transform="matrix(0.05,0,0,0.05,9,0)" xlink:href="#Z"/><use transform="matrix(0.05,0,0,0.05,19,0)" xlink:href="#ab"/><use transform="matrix(0.05,0,0,0.05,29,0)" xlink:href="#ah"/><use transform="matrix(0.05,0,0,0.05,39,0)" xlink:href="#ad"/><use transform="matrix(0.05,0,0,0.05,44,0)" xlink:href="#Y"/><use transform="matrix(0.05,0,0,0.05,49.95,0)" xlink:href="#aw"/></g><path fill="#3a414a" d="M27 0v-27h64v-190l-56 39v-29l58-41h29v221h61V0H27" id="aM"/><use transform="matrix(0.05,0,0,0.05,0,0)" xlink:href="#aM" id="P"/><path fill="#3a414a" d="M87 75C49 33 22-17 22-94c0-76 28-126 65-167h31c-38 41-64 92-64 168S80 34 118 75H87" id="aN"/><path fill="#3a414a" d="M33-261c38 41 65 92 65 168S71 34 33 75H2C39 34 66-17 66-93S39-220 2-261h31" id="aO"/><g id="Q"><use transform="matrix(0.05,0,0,0.05,0,0)" xlink:href="#aN"/><use transform="matrix(0.05,0,0,0.05,5.95,0)" xlink:href="#aM"/><use transform="matrix(0.05,0,0,0.05,15.949999999999998,0)" xlink:href="#aO"/></g><path fill="#3a414a" d="M240 0l2-218c-23 76-54 145-80 218h-23L58-218 59 0H30v-248h44l77 211c21-75 51-140 76-211h43V0h-30" id="aP"/><use transform="matrix(0.05,0,0,0.05,0,0)" xlink:href="#aP" id="R"/><path fill="#3a414a" d="M101-251c68 0 85 55 85 127S166 4 100 4C33 4 14-52 14-124c0-73 17-127 87-127zm-1 229c47 0 54-49 54-102s-4-102-53-102c-51 0-55 48-55 102 0 53 5 102 54 102" id="aQ"/><g id="S"><use transform="matrix(0.05,0,0,0.05,0,0)" xlink:href="#aN"/><use transform="matrix(0.05,0,0,0.05,5.95,0)" xlink:href="#aQ"/><use transform="matrix(0.05,0,0,0.05,15.949999999999998,0)" xlink:href="#aO"/></g><path fill="#3a414a" d="M141-36C126-15 110 5 73 4 37 3 15-17 15-53c-1-64 63-63 125-63 3-35-9-54-41-54-24 1-41 7-42 31l-33-3c5-37 33-52 76-52 45 0 72 20 72 64v82c-1 20 7 32 28 27v20c-31 9-61-2-59-35zM48-53c0 20 12 33 32 33 41-3 63-29 60-74-43 2-92-5-92 41" id="aR"/><path fill="#3a414a" d="M143 0L79-87 56-68V0H24v-261h32v163l83-92h37l-77 82L181 0h-38" id="aS"/><path fill="#3a414a" d="M100-194c63 0 86 42 84 106H49c0 40 14 67 53 68 26 1 43-12 49-29l28 8c-11 28-37 45-77 45C44 4 14-33 15-96c1-61 26-98 85-98zm52 81c6-60-76-77-97-28-3 7-6 17-6 28h103" id="aT"/><path fill="#3a414a" d="M135-143c-3-34-86-38-87 0 15 53 115 12 119 90S17 21 10-45l28-5c4 36 97 45 98 0-10-56-113-15-118-90-4-57 82-63 122-42 12 7 21 19 24 35" id="aU"/><g id="T"><use transform="matrix(0.05,0,0,0.05,0,0)" xlink:href="#aP"/><use transform="matrix(0.05,0,0,0.05,14.950000000000001,0)" xlink:href="#aR"/><use transform="matrix(0.05,0,0,0.05,24.950000000000003,0)" xlink:href="#aS"/><use transform="matrix(0.05,0,0,0.05,33.95,0)" xlink:href="#aT"/><use transform="matrix(0.05,0,0,0.05,43.95,0)" xlink:href="#aU"/></g><path fill="#3a414a" d="M33 0v-248h34V0H33" id="aV"/><path fill="#3a414a" d="M117-194c89-4 53 116 60 194h-32v-121c0-31-8-49-39-48C34-167 62-67 57 0H25l-1-190h30c1 10-1 24 2 32 11-22 29-35 61-36" id="aW"/><path fill="#3a414a" d="M96-169c-40 0-48 33-48 73s9 75 48 75c24 0 41-14 43-38l32 2c-6 37-31 61-74 61-59 0-76-41-82-99-10-93 101-131 147-64 4 7 5 14 7 22l-32 3c-4-21-16-35-41-35" id="aX"/><path fill="#3a414a" d="M24 0v-261h32V0H24" id="aY"/><path fill="#3a414a" d="M84 4C-5 8 30-112 23-190h32v120c0 31 7 50 39 49 72-2 45-101 50-169h31l1 190h-30c-1-10 1-25-2-33-11 22-28 36-60 37" id="aZ"/><path fill="#3a414a" d="M85-194c31 0 48 13 60 33l-1-100h32l1 261h-30c-2-10 0-23-3-31C134-8 116 4 85 4 32 4 16-35 15-94c0-66 23-100 70-100zm9 24c-40 0-46 34-46 75 0 40 6 74 45 74 42 0 51-32 51-76 0-42-9-74-50-73" id="ba"/><g id="U"><use transform="matrix(0.05,0,0,0.05,0,0)" xlink:href="#aV"/><use transform="matrix(0.05,0,0,0.05,5,0)" xlink:href="#aW"/><use transform="matrix(0.05,0,0,0.05,15,0)" xlink:href="#aX"/><use transform="matrix(0.05,0,0,0.05,24,0)" xlink:href="#aY"/><use transform="matrix(0.05,0,0,0.05,27.950000000000003,0)" xlink:href="#aZ"/><use transform="matrix(0.05,0,0,0.05,37.95,0)" xlink:href="#ba"/><use transform="matrix(0.05,0,0,0.05,47.95,0)" xlink:href="#aT"/><use transform="matrix(0.05,0,0,0.05,57.95,0)" xlink:href="#aU"/></g><path fill="#3a414a" d="M30 0v-248h33v221h125V0H30" id="bb"/><path fill="#3a414a" d="M108 0H70L1-190h34L89-25l56-165h34" id="bc"/><g id="V"><use transform="matrix(0.05,0,0,0.05,0,0)" xlink:href="#bb"/><use transform="matrix(0.05,0,0,0.05,10,0)" xlink:href="#aT"/><use transform="matrix(0.05,0,0,0.05,20,0)" xlink:href="#aR"/><use transform="matrix(0.05,0,0,0.05,30,0)" xlink:href="#bc"/><use transform="matrix(0.05,0,0,0.05,39,0)" xlink:href="#aT"/><use transform="matrix(0.05,0,0,0.05,49,0)" xlink:href="#aU"/></g><path fill="#3a414a" d="M233-177c-1 41-23 64-60 70L243 0h-38l-65-103H63V0H30v-248c88 3 205-21 203 71zM63-129c60-2 137 13 137-47 0-61-80-42-137-45v92" id="bd"/><path fill="#3a414a" d="M101-234c-31-9-42 10-38 44h38v23H63V0H32v-167H5v-23h27c-7-52 17-82 69-68v24" id="be"/><path fill="#3a414a" d="M114-163C36-179 61-72 57 0H25l-1-190h30c1 12-1 29 2 39 6-27 23-49 58-41v29" id="bf"/><g id="W"><use transform="matrix(0.05,0,0,0.05,0,0)" xlink:href="#bd"/><use transform="matrix(0.05,0,0,0.05,12.950000000000001,0)" xlink:href="#aT"/><use transform="matrix(0.05,0,0,0.05,22.950000000000003,0)" xlink:href="#be"/><use transform="matrix(0.05,0,0,0.05,27.950000000000003,0)" xlink:href="#aT"/><use transform="matrix(0.05,0,0,0.05,37.95,0)" xlink:href="#bf"/><use transform="matrix(0.05,0,0,0.05,43.900000000000006,0)" xlink:href="#aT"/><use transform="matrix(0.05,0,0,0.05,53.900000000000006,0)" xlink:href="#aW"/><use transform="matrix(0.05,0,0,0.05,63.900000000000006,0)" xlink:href="#aX"/><use transform="matrix(0.05,0,0,0.05,72.9,0)" xlink:href="#aT"/><use transform="matrix(0.05,0,0,0.05,82.9,0)" xlink:href="#aU"/></g></defs></g></svg>